<svg xmlns="http://www.w3.org/2000/svg" width="33" height="29" viewBox="0 0 32.129 28.566"><g fill="none" stroke="#293f54" stroke-width=".567" stroke-miterlimit="10"><path d="M31.846 27.283a1 1 0 0 1-1 1H1.283a1 1 0 0 1-1-1v-26a1 1 0 0 1 1-1h29.563a1 1 0 0 1 1 1v26z"/><path d="M.096 7.22h31.687"/></g><g fill="#00b1cc"><circle cx="2.846" cy="3.846" r=".813"/><circle cx="6.846" cy="3.846" r=".813"/><circle cx="10.846" cy="3.846" r=".813"/></g><g fill="#293f54"><circle cx="16.221" cy="3.846" r=".5"/><circle cx="18.746" cy="3.846" r=".5"/><circle cx="21.271" cy="3.846" r=".5"/><circle cx="23.797" cy="3.846" r=".5"/><circle cx="26.321" cy="3.846" r=".5"/><circle cx="28.846" cy="3.846" r=".5"/><path d="M18.253 17.226h.323v1.136h.702v.264h-1.025v-1.4z"/><path d="M19.35 17.926c0-.416.323-.724.766-.724s.766.306.766.724-.326.724-.766.724-.766-.3-.766-.724zm1.203 0c0-.267-.188-.448-.438-.448s-.438.182-.438.448.188.447.438.447.438-.182.438-.447zm1.472.4h-.65l-.124.3h-.33l.623-1.4h.32l.625 1.4h-.34l-.124-.3zm-.1-.246l-.222-.535-.222.535h.444zm.712-.853h.636c.458 0 .77.276.77.7s-.313.7-.77.7h-.636v-1.4zm.62 1.133c.278 0 .46-.166.46-.434s-.182-.435-.46-.435h-.296v.868h.296zm1.033-1.133h.323v1.4H24.3v-1.4zm1.94 0v1.4h-.266l-.698-.85v.85h-.32v-1.4h.268l.695.85v-.85h.32zm1.276.677h.296v.567c-.154.116-.366.18-.565.18-.44 0-.764-.303-.764-.724s.323-.724.77-.724a.75.75 0 0 1 .586.241l-.208.192c-.103-.108-.22-.158-.362-.158a.43.43 0 0 0-.457.448.43.43 0 0 0 .453.447c.088 0 .17-.016.252-.06v-.408z"/></g><path d="M6.672 20.177a1.04 1.04 0 0 0-.762.313 1.04 1.04 0 0 0-.313.762 1.03 1.03 0 0 0 .313.76 1.04 1.04 0 0 0 .762.313 1.04 1.04 0 0 0 .757-.313c.212-.2.317-.462.317-.76a1.03 1.03 0 0 0-.317-.762 1.04 1.04 0 0 0-.757-.313zm-.24-2.267a1.15 1.15 0 0 0-.35-.844c-.234-.233-.516-.35-.844-.35a1.15 1.15 0 0 0-.843.351c-.233.235-.35.515-.35.844a1.15 1.15 0 0 0 .351.843 1.15 1.15 0 0 0 .843.351c.328 0 .6-.117.844-.35s.35-.515.35-.843zm6.922-2.746a.58.58 0 0 0 .598-.598.57.57 0 0 0-.176-.42c-.116-.115-.258-.176-.422-.176a.57.57 0 0 0-.421.176.57.57 0 0 0-.176.421.58.58 0 0 0 .176.422.57.57 0 0 0 .42.176zm-6.683-1.9a1.27 1.27 0 0 0-.93.384c-.257.256-.385.566-.385.93a1.27 1.27 0 0 0 .385.93 1.26 1.26 0 0 0 .93.384c.363 0 .673-.13.93-.385a1.26 1.26 0 0 0 .384-.93c0-.365-.128-.673-.384-.93a1.26 1.26 0 0 0-.93-.383zm8.623 4.146c-.14-.14-.308-.208-.507-.208a.69.69 0 0 0-.716.716.69.69 0 0 0 .716.716c.2 0 .368-.07.507-.2a.69.69 0 0 0 .209-.507.69.69 0 0 0-.209-.508zm-1.94 3.015a.84.84 0 0 0-.6.247.8.8 0 0 0-.245.589c0 .23.082.426.245.6a.81.81 0 0 0 .6.247c.24 0 .426-.083.6-.247a.8.8 0 0 0 .246-.589.8.8 0 0 0-.246-.589.8.8 0 0 0-.59-.247zm-3.34 1.315a.92.92 0 0 0-.675.279c-.187.187-.28.4-.28.675a.92.92 0 0 0 .28.676.92.92 0 0 0 .675.28.92.92 0 0 0 .675-.279c.188-.187.28-.412.28-.676s-.093-.488-.28-.675a.92.92 0 0 0-.675-.279zm0-10.028a1.38 1.38 0 0 0-1.015.418 1.38 1.38 0 0 0-.417 1.014c0 .398.14.736.417 1.015s.616.418 1.015.418.736-.14 1.015-.418.418-.616.418-1.015a1.38 1.38 0 0 0-.418-1.014 1.38 1.38 0 0 0-1.015-.418z" fill="#ffc500"/></svg>