<svg xmlns="http://www.w3.org/2000/svg" width="33" height="29" viewBox="0 0 32.13 28.566"><style><![CDATA[.B{stroke-miterlimit:10}.C{stroke:#293f54}.D{stroke-linejoin:round}.E{stroke-width:.384}]]></style><g fill="none" stroke-width=".567" class="B C"><path d="M31.846 27.283a1 1 0 0 1-1 1H1.284a1 1 0 0 1-1-1v-26a1 1 0 0 1 1-1h29.563a1 1 0 0 1 1 1v26z"/><path d="M.096 7.22h31.688"/></g><g fill="#00b1cc"><circle cx="2.846" cy="3.846" r=".813"/><circle cx="6.846" cy="3.846" r=".813"/><circle cx="10.846" cy="3.846" r=".813"/></g><g fill="#293f54"><circle cx="16.221" cy="3.846" r=".5"/><circle cx="18.747" cy="3.846" r=".5"/><circle cx="21.272" cy="3.846" r=".5"/><circle cx="23.797" cy="3.846" r=".5"/><circle cx="26.322" cy="3.846" r=".5"/><circle cx="28.846" cy="3.846" r=".5"/></g><path fill="none" d="M14.17 11.575H7.908L3.01 15.538l1.325 2.968 3.572-2.968v6.564l2.068.054v.01l.223-.007.224.007v-.01l3.748-.054v-6.564l3.572 2.968 1.325-2.968z" class="B C D E"/><path fill="#ffc500" d="M25.5 14.726c.002.482-.387.874-.87.876l-2.017.01a.87.87 0 0 1-.875-.869l-.01-1.962c-.002-.48.387-.874.87-.876l2.017-.01a.87.87 0 0 1 .875.868l.01 1.963z"/><path fill="none" stroke="#00b1cc" d="M26.398 22.41a.87.87 0 0 1-.868.875l-3.826.017a.87.87 0 0 1-.876-.868l-.017-3.826a.87.87 0 0 1 .868-.876l3.826-.016a.87.87 0 0 1 .876.868l.017 3.826z" class="B D E"/><path fill="#00b1cc" d="M25.5 21.475a.87.87 0 0 1-.869.875l-2.017.01a.87.87 0 0 1-.875-.868l-.01-1.963c-.002-.48.387-.873.868-.876l2.017-.01c.482-.002.874.387.876.87l.01 1.963z"/><g stroke-width=".454" stroke-linecap="round" class="B C D"><path fill="#fff" d="M26.59 24.867l1.5-.817-4.557-2.78-.13 5.335 1.5-.817"/><path fill="none" d="M25.96 25.724l1.02 1.872"/></g></svg>