<svg xmlns="http://www.w3.org/2000/svg" width="33" height="29" viewBox="0 0 32.129 28.566"><g fill="none" stroke="#293f54" stroke-width=".567" stroke-miterlimit="10"><path d="M31.846 27.283a1 1 0 0 1-1 1H1.283a1 1 0 0 1-1-1v-26a1 1 0 0 1 1-1h29.563a1 1 0 0 1 1 1v26z"/><path d="M.096 7.22h31.687"/></g><g fill="#00b1cc"><circle cx="2.846" cy="3.846" r=".813"/><circle cx="6.846" cy="3.846" r=".813"/><circle cx="10.846" cy="3.846" r=".813"/></g><g fill="#293f54"><circle cx="16.221" cy="3.846" r=".5"/><circle cx="18.745" cy="3.846" r=".5"/><circle cx="21.27" cy="3.846" r=".5"/><circle cx="23.795" cy="3.846" r=".5"/><circle cx="26.32" cy="3.846" r=".5"/><circle cx="28.846" cy="3.846" r=".5"/></g><path fill="#00b1cc" d="M11.163 14.04H6.495l-3.65 2.954.987 2.212 2.662-2.212v4.892l1.54.04v.008l.167-.006.167.006v-.008l2.793-.04v-4.892l2.662 2.212.988-2.212z"/><g stroke="#293f54" fill="#fff" stroke-width=".454" stroke-linejoin="round"><circle cx="18.554" cy="16.641" r="6.207"/><g stroke-miterlimit="10" stroke-linecap="round"><path d="M24.314 21.24l2.266 2.265a.82.82 0 0 1 0 1.161c-.32.32-.84.32-1.162 0L23.154 22.4"/><path d="M21.13 23.493a7.13 7.13 0 0 0 4.278-4.277"/></g></g><path fill="#00b1cc" d="M12.348 16.733c0 2.25 1.202 4.217 2.996 5.305v-6.296l5.2 4.313 1.925-4.313-5.99-4.85c-2.4.858-4.12 3.145-4.12 5.84z"/><g fill="none" stroke="#293f54" stroke-width=".454" stroke-linejoin="round"><circle cx="18.554" cy="16.641" r="6.207"/><g stroke-miterlimit="10" stroke-linecap="round"><path d="M24.314 21.24l2.266 2.265a.82.82 0 0 1 0 1.161c-.32.32-.84.32-1.162 0L23.154 22.4"/><path d="M21.13 23.493a7.13 7.13 0 0 0 4.278-4.277"/></g></g></svg>