<svg xmlns="http://www.w3.org/2000/svg" width="33" height="29" viewBox="0 0 32.129 28.566"><path d="M12.062 11.04h6.056v4.26h-6.056zm8.208 0h6.056v4.26H20.27z" fill="#00b1cc"/><g fill="none" stroke="#293f54" stroke-width=".567" stroke-miterlimit="10"><path d="M31.846 27.283a1 1 0 0 1-1 1H1.283a1 1 0 0 1-1-1v-26a1 1 0 0 1 1-1h29.563a1 1 0 0 1 1 1v26z"/><path d="M.096 7.22h31.687"/></g><g fill="#00b1cc"><circle cx="2.846" cy="3.846" r=".813"/><circle cx="6.846" cy="3.846" r=".813"/><circle cx="10.846" cy="3.846" r=".813"/></g><g fill="#293f54"><circle cx="16.221" cy="3.846" r=".5"/><circle cx="18.746" cy="3.846" r=".5"/><circle cx="21.271" cy="3.846" r=".5"/><circle cx="23.797" cy="3.846" r=".5"/><circle cx="26.321" cy="3.846" r=".5"/><circle cx="28.846" cy="3.846" r=".5"/></g><path fill="#fff" stroke="#293f54" stroke-width=".454" stroke-linejoin="round" stroke-miterlimit="10" d="M10.002 13.83v-2.79H3.946v17.242h24.9V13.83z"/><path d="M6.278 17.988H26.32v1.02H6.278zm0 2.984H26.32v1.02H6.278zm0 2.653H26.32v1.02H6.278z" fill="#cceff5"/></svg>