<svg xmlns="http://www.w3.org/2000/svg" width="33" height="29" viewBox="0 0 32.13 28.566"><style><![CDATA[.B{stroke-miterlimit:10}.C{stroke-linejoin:round}.D{stroke-width:.454}]]></style><g fill="none" stroke="#293f54" stroke-width=".567" class="B"><path d="M31.846 27.283a1 1 0 0 1-1 1H1.284a1 1 0 0 1-1-1v-26a1 1 0 0 1 1-1h29.563a1 1 0 0 1 1 1v26z"/><path d="M.096 7.22h31.688"/></g><g fill="#00b1cc"><circle cx="2.846" cy="3.846" r=".813"/><circle cx="6.846" cy="3.846" r=".813"/><circle cx="10.846" cy="3.846" r=".813"/></g><g fill="#293f54"><circle cx="16.221" cy="3.846" r=".5"/><circle cx="18.747" cy="3.846" r=".5"/><circle cx="21.272" cy="3.846" r=".5"/><circle cx="23.797" cy="3.846" r=".5"/><circle cx="26.322" cy="3.846" r=".5"/><circle cx="28.846" cy="3.846" r=".5"/></g><g fill="none" class="B C"><g stroke="#293f54" stroke-width=".85" stroke-linecap="round"><path d="M8.284 13.465l15.513-2.552m-11.114 14.08h7.312"/><path d="M16.208 12.618v12.125"/></g><path d="M23.786 12.075l-2 5.667h4.026zm-2 6.485h4.026s-.5 2.044-2.024 2.02c-2.002-.033-2.002-2.02-2.002-2.02z" stroke="#00b1cc" class="D"/><path d="M8.352 14.43l-2 5.667h4.025zM6.35 20.913h4.026s-.5 2.044-2.024 2.02c-2.002-.033-2.002-2.02-2.002-2.02z" stroke="#ffc500" class="D"/></g></svg>